<svg width="62" height="62" xmlns="http://www.w3.org/2000/svg">
 <g id="Layer_1">
  <title>Layer 1</title>
  <g id="svg_2">
   <path id="svg_1" d="m55.01012,-1l-47.59,0c-4.09405,0 -7.41448,3.31595 -7.42006,7.41l0,47.52c-0.00792,1.9731 0.77031,3.86812 2.16269,5.26614c1.39239,1.39801 3.28425,2.18386 5.25737,2.18386l47.59,0c1.97138,-0.00264 3.86068,-0.78968 5.2509,-2.1874s2.16707,-3.29123 2.15916,-5.2626l0,-47.52c-0.00557,-4.09015 -3.31991,-7.40449 -7.41006,-7.41zm-28.09,44.93c-0.00264,0.65948 -0.26784,1.29075 -0.73697,1.75426c-0.46914,0.4635 -1.10356,0.72106 -1.76303,0.71582l-10.4,0c-1.36024,-0.00559 -2.46,-1.10983 -2.46,-2.47008l0,-30.95c0,-1.36025 1.09976,-2.46449 2.46,-2.47l10.4,0c1.36187,0.00548 2.46452,1.10813 2.47,2.47l0.03,30.95zm24,-14.21c0,0.66032 -0.2643,1.29316 -0.73402,1.75725c-0.46972,0.46408 -1.10571,0.72077 -1.76598,0.71293l-10.4,0c-1.36187,-0.00566 -2.46452,-1.10831 -2.47,-2.47018l0,-16.74c0.00548,-1.36187 1.10813,-2.46452 2.47,-2.47l10.4,0c1.36024,0.00551 2.46001,1.10975 2.46,2.47l0.04,16.74z" fill="#0052cc"/>
  </g>
 </g>

</svg>